# xmcd CD database file
#
# Track frame offsets:
#	150
#	19295
#	40467
#	60455
#	78300
#	95927
#	112572
#	132397
#	148202
#	168032
#	189312
#	209690
#
# Disc length: 3027 seconds
#
# Revision: 2
# Processed by: cddbd v1.4PL0 Copyright (c) Steve Scherf et al.
# Submitted via: CDex 1.40Release
#
DISCID=a70bd10c
DTITLE=Jon Secada - Secada
DYEAR=1997
DGENRE=Pop
TTITLE0=Too Late, Too Soon
TTITLE1=Heaven Is You
TTITLE2=Believe
TTITLE3=Get Me Over You
TTITLE4=It's Enough
TTITLE5=Ready For Love
TTITLE6=I Live For You
TTITLE7=Who Will Take Care Of Me
TTITLE8=After All Is Said And Done
TTITLE9=Forever (Is As Long As It Lasts)
TTITLE10=Too Late, Too Soon (Dance Version)
TTITLE11=Amandolo
EXTD=YEAR: 1997 ID3G: 13
EXTT0=
EXTT1=
EXTT2=
EXTT3=
EXTT4=
EXTT5=
EXTT6=
EXTT7=
EXTT8=
EXTT9=
EXTT10=
EXTT11=
PLAYORDER=
